<svg xmlns="http://www.w3.org/2000/svg" viewBox="0 0 16 16">
  <rect width="16" height="16" rx="2.5" fill="#212529"/>
  <path fill="#ffffff" d="M12.096 6.223A4.92 4.92 0 0 0 13 5.698V7c0 .289-.213.654-.753 1.007a4.493 4.493 0 0 1 1.753.25V4c0-1.007-.875-1.755-1.904-2.223C11.022 1.289 9.573 1 8 1s-3.022.289-4.096.777C2.875 2.245 2 2.993 2 4v9c0 1.007.875 1.755 1.904 2.223C4.978 15.71 6.427 16 8 16c.536 0 1.058-.034 1.555-.097a4.525 4.525 0 0 1-.813-.927C8.5 15.025 8.254 15 8 15c-1.57 0-3.022-.289-4.096-.777C3.313 13.811 3 13.4 3 13v-1.302c.271.202.58.378.904.525C4.978 12.71 6.427 13 8 13h.027a4.552 4.552 0 0 1 0-1H8c-1.57 0-3.022-.289-4.096-.777C3.313 10.811 3 10.4 3 10V8.698c.271.202.58.378.904.525C4.978 9.71 6.427 10 8 10c.262 0 .52-.009.774-.025a4.525 4.525 0 0 1 1.102-1.132C9.298 8.944 8.666 9 8 9c-1.57 0-3.022-.289-4.096-.777C3.313 7.811 3 7.4 3 7V5.698c.271.202.58.378.904.525C4.978 6.71 6.427 7 8 7s3.022-.289 4.096-.777ZM3 4c0-.4.313-.811.904-1.223C4.978 2.289 6.427 2 8 2c1.573 0 3.022.289 4.096.777C12.687 3.189 13 3.6 13 4c0 .4-.313.811-.904 1.223C11.022 5.711 9.573 6 8 6c-1.573 0-3.022-.289-4.096-.777C3.313 4.811 3 4.4 3 4Z"/>
  <path fill="#ffc107" d="M11.886 9.46c.18-.613 1.048-.613 1.229 0l.043.148a.64.64 0 0 0 .921.382l.136-.074c.561-.306 1.175.308.87.869l-.075.136a.64.64 0 0 0 .382.92l.149.045c.612.18.612 1.048 0 1.229l-.15.043a.64.64 0 0 0-.38.921l.074.136c.305.561-.309 1.175-.87.87l-.136-.075a.64.64 0 0 0-.92.382l-.045.149c-.18.612-1.048.612-1.229 0l-.043-.15a.64.64 0 0 0-.921-.38l-.136.074c-.561.305-1.175-.309-.87-.87l.075-.136a.64.64 0 0 0-.382-.92l-.148-.045c-.613-.18-.613-1.048 0-1.229l.148-.043a.64.64 0 0 0 .382-.921l-.074-.136c-.306-.561.308-1.175.869-.87l.136.075a.64.64 0 0 0 .92-.382l.045-.148ZM14 12.5a1.5 1.5 0 1 0-3 0 1.5 1.5 0 0 0 3 0Z"/>
</svg>
